<svg xmlns="http://www.w3.org/2000/svg" width="101" height="41" viewBox="0 0 101 41"><defs><style>.a{fill:#fbb30b;}.a,.b{stroke:#fefeff;stroke-width:3px;}.b,.c{fill:#565d74;}.c{font-size:30px;font-family:Nunito-ExtraBold, Nunito;font-weight:800;}.d{stroke:none;}.e{fill:none;}</style></defs><g transform="translate(-54 -50)"><g transform="translate(-113 -8)"><g class="a" transform="translate(198 63) rotate(90)"><path class="d" d="M31,0h0a0,0,0,0,1,0,0V31a0,0,0,0,1,0,0H0a0,0,0,0,1,0,0v0A31,31,0,0,1,31,0Z"/><path class="e" d="M29.08,1.5h0a.42.42,0,0,1,.42.42V29.08a.42.42,0,0,1-.42.42H1.92a.42.42,0,0,1-.42-.42v0A27.58,27.58,0,0,1,29.08,1.5Z"/></g><g class="b" transform="translate(179 63)"><path class="d" d="M31,0h0a0,0,0,0,1,0,0V31a0,0,0,0,1,0,0H0a0,0,0,0,1,0,0v0A31,31,0,0,1,31,0Z"/><path class="e" d="M29.08,1.5h0a.42.42,0,0,1,.42.42V29.08a.42.42,0,0,1-.42.42H1.92a.42.42,0,0,1-.42-.42v0A27.58,27.58,0,0,1,29.08,1.5Z"/></g></g><text class="c" transform="translate(101 80)"><tspan x="0" y="0">test</tspan></text></g></svg>