<svg xmlns="http://www.w3.org/2000/svg" xmlns:xlink="http://www.w3.org/1999/xlink" width="24" height="24" viewBox="0 0 24 24"><defs><style>.a{fill:#565d74;}.b{opacity:0.5;}.c{clip-path:url(#a);}</style><clipPath id="a"><path class="a" d="M8,20a1,1,0,0,1-.651-.242C7.049,19.5,0,13.423,0,7.922a8,8,0,0,1,16,0c0,5.5-7.049,11.58-7.349,11.836A1,1,0,0,1,8,20ZM8,2A5.968,5.968,0,0,0,2,7.922c0,3.655,4.2,8.018,6,9.724,1.8-1.705,6-6.067,6-9.724A5.968,5.968,0,0,0,8,2Zm0,9a3.5,3.5,0,1,1,3.5-3.5A3.5,3.5,0,0,1,8,11ZM8,6A1.5,1.5,0,1,0,9.5,7.5,1.5,1.5,0,0,0,8,6Z" transform="translate(4 2)"/></clipPath></defs><g class="b"><path class="a" d="M8,20a1,1,0,0,1-.651-.242C7.049,19.5,0,13.423,0,7.922a8,8,0,0,1,16,0c0,5.5-7.049,11.58-7.349,11.836A1,1,0,0,1,8,20ZM8,2A5.968,5.968,0,0,0,2,7.922c0,3.655,4.2,8.018,6,9.724,1.8-1.705,6-6.067,6-9.724A5.968,5.968,0,0,0,8,2Zm0,9a3.5,3.5,0,1,1,3.5-3.5A3.5,3.5,0,0,1,8,11ZM8,6A1.5,1.5,0,1,0,9.5,7.5,1.5,1.5,0,0,0,8,6Z" transform="translate(4 2)"/></g></svg>