<svg xmlns="http://www.w3.org/2000/svg" xmlns:xlink="http://www.w3.org/1999/xlink" width="24" height="24" viewBox="0 0 24 24"><defs><style>.a{fill:#222b45;}.b{clip-path:url(#a);}</style><clipPath id="a"><path class="a" d="M17,16H3a3,3,0,0,1-3-3V3A3,3,0,0,1,3,0H17a3,3,0,0,1,3,3V13A3,3,0,0,1,17,16ZM2,3.25V13a1,1,0,0,0,1,1H17a1,1,0,0,0,1-1V3.25L10.6,8.8a1,1,0,0,1-1.2,0ZM3.667,2,10,6.75,16.333,2Z" transform="translate(2 4)"/></clipPath></defs><path class="a" d="M17,16H3a3,3,0,0,1-3-3V3A3,3,0,0,1,3,0H17a3,3,0,0,1,3,3V13A3,3,0,0,1,17,16ZM2,3.25V13a1,1,0,0,0,1,1H17a1,1,0,0,0,1-1V3.25L10.6,8.8a1,1,0,0,1-1.2,0ZM3.667,2,10,6.75,16.333,2Z" transform="translate(2 4)"/></svg>