<svg xmlns="http://www.w3.org/2000/svg" xmlns:xlink="http://www.w3.org/1999/xlink" width="24" height="24" viewBox="0 0 24 24"><defs><style>.a{fill:#222b45;}.b{clip-path:url(#a);}</style><clipPath id="a"><path class="a" d="M6.616,20a2.22,2.22,0,0,1-1.356-.461L3.188,17.966A2.361,2.361,0,0,1,2.7,14.75a2.038,2.038,0,0,0,.231-1.857l-.055-.168a1.838,1.838,0,0,0-1.118-1.211l-.164-.057A2.345,2.345,0,0,1,.112,8.517L.928,5.922A2.226,2.226,0,0,1,2.052,4.588a2.148,2.148,0,0,1,.977-.235,2.179,2.179,0,0,1,.706.118,1.872,1.872,0,0,0,.606.1,1.948,1.948,0,0,0,1.17-.4l.129-.1a1.911,1.911,0,0,0,.734-1.51V2.326A2.313,2.313,0,0,1,8.658,0l2.551,0a2.245,2.245,0,0,1,1.6.671,2.341,2.341,0,0,1,.682,1.675l0,.279a1.782,1.782,0,0,0,.694,1.429l.107.081a1.762,1.762,0,0,0,1.051.352,1.7,1.7,0,0,0,.542-.088l.339-.113a2.252,2.252,0,0,1,.711-.116,2.218,2.218,0,0,1,1.02.248A2.3,2.3,0,0,1,19.107,5.8l.787,2.521a2.353,2.353,0,0,1-1.465,2.929l-.2.067A1.922,1.922,0,0,0,17.017,12.6a1.954,1.954,0,0,0,.259,1.652l.26.374a2.383,2.383,0,0,1-.508,3.229l-2.061,1.556a2.226,2.226,0,0,1-1.352.457,2.3,2.3,0,0,1-.359-.028,2.261,2.261,0,0,1-1.509-.958l-.118-.172a1.742,1.742,0,0,0-1.41-.779l-.087,0A1.768,1.768,0,0,0,8.7,18.7l-.231.328a2.264,2.264,0,0,1-1.51.944A2.292,2.292,0,0,1,6.616,20ZM3.03,6.354a.163.163,0,0,0-.076.019.236.236,0,0,0-.118.148l-.817,2.6a.357.357,0,0,0,.221.449l.164.056a3.841,3.841,0,0,1,2.377,2.5l.04.12a4.046,4.046,0,0,1-.461,3.623.367.367,0,0,0,.036.508l2.072,1.574A.252.252,0,0,0,6.623,18l.033,0a.27.27,0,0,0,.182-.12l.231-.328a3.8,3.8,0,0,1,2.971-1.614h.085a3.778,3.778,0,0,1,3.15,1.64l.118.171a.271.271,0,0,0,.182.12.2.2,0,0,0,.04,0,.24.24,0,0,0,.148-.053l2.061-1.555a.372.372,0,0,0,.068-.494l-.259-.375a3.966,3.966,0,0,1-.533-3.359,3.915,3.915,0,0,1,2.492-2.614l.2-.068a.349.349,0,0,0,.191-.437L17.2,6.393a.315.315,0,0,0-.155-.193.234.234,0,0,0-.111-.028.242.242,0,0,0-.077.013l-.339.113a3.719,3.719,0,0,1-1.176.19,3.778,3.778,0,0,1-2.256-.755l-.108-.081a3.79,3.79,0,0,1-1.489-3.035l0-.28a.353.353,0,0,0-.1-.254A.254.254,0,0,0,11.206,2L8.659,2a.313.313,0,0,0-.284.333v.242A3.929,3.929,0,0,1,6.852,5.669l-.129.1a3.956,3.956,0,0,1-2.38.8,3.88,3.88,0,0,1-1.255-.208.179.179,0,0,0-.058-.01ZM10,13.5A3.5,3.5,0,1,1,13.5,10,3.5,3.5,0,0,1,10,13.5Zm0-5A1.5,1.5,0,1,0,11.5,10,1.5,1.5,0,0,0,10,8.5Z" transform="translate(1.998 2)"/></clipPath></defs><path class="a" d="M6.616,20a2.22,2.22,0,0,1-1.356-.461L3.188,17.966A2.361,2.361,0,0,1,2.7,14.75a2.038,2.038,0,0,0,.231-1.857l-.055-.168a1.838,1.838,0,0,0-1.118-1.211l-.164-.057A2.345,2.345,0,0,1,.112,8.517L.928,5.922A2.226,2.226,0,0,1,2.052,4.588a2.148,2.148,0,0,1,.977-.235,2.179,2.179,0,0,1,.706.118,1.872,1.872,0,0,0,.606.1,1.948,1.948,0,0,0,1.17-.4l.129-.1a1.911,1.911,0,0,0,.734-1.51V2.326A2.313,2.313,0,0,1,8.658,0l2.551,0a2.245,2.245,0,0,1,1.6.671,2.341,2.341,0,0,1,.682,1.675l0,.279a1.782,1.782,0,0,0,.694,1.429l.107.081a1.762,1.762,0,0,0,1.051.352,1.7,1.7,0,0,0,.542-.088l.339-.113a2.252,2.252,0,0,1,.711-.116,2.218,2.218,0,0,1,1.02.248A2.3,2.3,0,0,1,19.107,5.8l.787,2.521a2.353,2.353,0,0,1-1.465,2.929l-.2.067A1.922,1.922,0,0,0,17.017,12.6a1.954,1.954,0,0,0,.259,1.652l.26.374a2.383,2.383,0,0,1-.508,3.229l-2.061,1.556a2.226,2.226,0,0,1-1.352.457,2.3,2.3,0,0,1-.359-.028,2.261,2.261,0,0,1-1.509-.958l-.118-.172a1.742,1.742,0,0,0-1.41-.779l-.087,0A1.768,1.768,0,0,0,8.7,18.7l-.231.328a2.264,2.264,0,0,1-1.51.944A2.292,2.292,0,0,1,6.616,20ZM3.03,6.354a.163.163,0,0,0-.076.019.236.236,0,0,0-.118.148l-.817,2.6a.357.357,0,0,0,.221.449l.164.056a3.841,3.841,0,0,1,2.377,2.5l.04.12a4.046,4.046,0,0,1-.461,3.623.367.367,0,0,0,.036.508l2.072,1.574A.252.252,0,0,0,6.623,18l.033,0a.27.27,0,0,0,.182-.12l.231-.328a3.8,3.8,0,0,1,2.971-1.614h.085a3.778,3.778,0,0,1,3.15,1.64l.118.171a.271.271,0,0,0,.182.12.2.2,0,0,0,.04,0,.24.24,0,0,0,.148-.053l2.061-1.555a.372.372,0,0,0,.068-.494l-.259-.375a3.966,3.966,0,0,1-.533-3.359,3.915,3.915,0,0,1,2.492-2.614l.2-.068a.349.349,0,0,0,.191-.437L17.2,6.393a.315.315,0,0,0-.155-.193.234.234,0,0,0-.111-.028.242.242,0,0,0-.077.013l-.339.113a3.719,3.719,0,0,1-1.176.19,3.778,3.778,0,0,1-2.256-.755l-.108-.081a3.79,3.79,0,0,1-1.489-3.035l0-.28a.353.353,0,0,0-.1-.254A.254.254,0,0,0,11.206,2L8.659,2a.313.313,0,0,0-.284.333v.242A3.929,3.929,0,0,1,6.852,5.669l-.129.1a3.956,3.956,0,0,1-2.38.8,3.88,3.88,0,0,1-1.255-.208.179.179,0,0,0-.058-.01ZM10,13.5A3.5,3.5,0,1,1,13.5,10,3.5,3.5,0,0,1,10,13.5Zm0-5A1.5,1.5,0,1,0,11.5,10,1.5,1.5,0,0,0,10,8.5Z" transform="translate(1.998 2)"/></svg>